# xmcd
#
# Track frame offsets: 
#        150
#        13650
#        29920
#        54562
#        73376
#        90178
#        96049
#        116036
#        132919
#        159575
#        180767
#        199348
#
# Disc length: 2961 seconds
#
# Revision: 1
# Processed by: cddbd v1.5.2PL0 Copyright (c) Steve Scherf et al.
# Submitted via: ExactAudioCopy v1.5
#
DISCID=a20b8f0c
DTITLE=小林未郁 - Mika Type は [特別仕様版 限定500セット] Disk-1 【イツカノワタシ】
DYEAR=2019
DGENRE=J-Pop
TTITLE0=月とヤモリ
TTITLE1=潜水艦
TTITLE2=記憶ノ海
TTITLE3=使い捨て
TTITLE4=鴉ノ月影
TTITLE5=内緒話
TTITLE6=終わらない回廊
TTITLE7=暗号
TTITLE8=雨音
TTITLE9=鳥籠
TTITLE10=縁結び
TTITLE11=まどろみ-おやすみの時間-
EXTD=
EXTT0=
EXTT1=
EXTT2=
EXTT3=
EXTT4=
EXTT5=
EXTT6=
EXTT7=
EXTT8=
EXTT9=
EXTT10=
EXTT11=
PLAYORDER=
